<?xml version="1.0" encoding="UTF-8"?>
<svg version="1.1" xmlns="http://www.w3.org/2000/svg" width="1920" height="1080">
<path d="M0 0 C0.84917999 -0.00983917 1.69835999 -0.01967834 2.57327271 -0.02981567 C61.73036955 -0.5736542 116.18397908 16.60918832 160.40234375 57.015625 C162.74917287 59.1487652 165.13800211 61.22460198 167.53515625 63.30078125 C171.69378723 67.0013812 175.28425631 70.97118468 178.84765625 75.23828125 C179.585 76.07617188 180.32234375 76.9140625 181.08203125 77.77734375 C206.12801108 106.73177266 221.81202164 142.06871073 229.84765625 179.23828125 C230.02844727 180.04265625 230.20923828 180.84703125 230.39550781 181.67578125 C235.8575336 207.04216743 235.3746537 237.93811343 229.84765625 263.23828125 C229.6760498 264.07939453 229.50444336 264.92050781 229.32763672 265.78710938 C218.79459592 316.95566146 190.26654289 364.11312663 148.84765625 396.23828125 C148.3160791 396.6569043 147.78450195 397.07552734 147.23681641 397.50683594 C136.45887326 405.94773307 124.90784382 412.7898879 112.84765625 419.23828125 C112.13416016 419.62113281 111.42066406 420.00398438 110.68554688 420.3984375 C90.26484887 431.15452916 67.52069419 437.45734573 44.84765625 441.23828125 C43.70852783 441.43309082 43.70852783 441.43309082 42.54638672 441.63183594 C-11.32882149 450.40822167 -70.03532547 435.44698902 -114.61376953 404.53125 C-123.26012553 398.29253574 -131.35702998 391.50942737 -139.15234375 384.23828125 C-140.8808374 382.71668305 -142.61001195 381.195858 -144.33984375 379.67578125 C-148.65200915 375.77811857 -152.47537182 371.73398251 -156.15234375 367.23828125 C-156.58272949 366.72023926 -157.01311523 366.20219727 -157.45654297 365.66845703 C-196.23990136 318.89990328 -214.74292912 260.61577069 -209.68359375 199.875 C-205.39895366 157.63187643 -189.26599131 116.06750591 -162.15234375 83.23828125 C-161.69778809 82.68221191 -161.24323242 82.12614258 -160.77490234 81.55322266 C-149.74821559 68.12827881 -137.85112263 55.87229179 -123.87158203 45.51318359 C-122.20263053 44.27557145 -120.55056822 43.01774306 -118.8984375 41.7578125 C-85.48695063 16.6817696 -41.98580305 0.40316908 0 0 Z " fill="#FEFEFE" transform="translate(977.15234375,289.76171875)"/>
<path d="M0 0 C14.19 0 28.38 0 43 0 C43 0.99 43 1.98 43 3 C40.36 3.33 37.72 3.66 35 4 C36.89283675 13.71092854 40.59358007 22.05698856 45 30.8125 C45.95017177 32.7271446 46.8970175 34.64339722 47.84277344 36.56022644 C48.69701791 38.28740773 49.55918819 40.01066252 50.421875 41.73364258 C51.55371879 44.07630007 52.58879362 46.38777562 53.578125 48.7878418 C54.77682465 52.01707464 54.77682465 52.01707464 57 54 C57.47179687 52.85724609 57.47179687 52.85724609 57.953125 51.69140625 C59.95166189 46.86963501 61.95358424 42.05931586 64.125 37.3125 C65.76305007 33.66800306 67.07180857 29.98733414 68.27734375 26.1796875 C68.96970454 24.09137765 69.78093365 22.09315239 70.625 20.0625 C72.40283956 15.45501003 72.65944392 10.90400761 73 6 C69.7 5.01 66.4 4.02 63 3 C63 2.01 63 1.02 63 0 C75.87 0 88.74 0 102 0 C102 0.99 102 1.98 102 3 C101.40832031 3.12117188 100.81664062 3.24234375 100.20703125 3.3671875 C91.60971938 5.19043472 86.25811453 7.0870869 81.26953125 14.609375 C77.26319358 21.20402891 74.44761676 27.71320201 72 35 C71.04162111 37.67448049 70.05580153 40.33831345 69.0625 43 C68.80895752 43.68030273 68.55541504 44.36060547 68.29418945 45.06152344 C66.11641934 50.8328569 63.63458945 56.42086941 61 62 C56.05 62 51.1 62 46 62 C46.12375 63.216875 46.2475 64.43375 46.375 65.6875 C46.38413528 68.25451333 46.30531167 69.57096726 44.8046875 71.6796875 C43.25 73.0625 43.25 73.0625 40 75 C37.625 74.8125 37.625 74.8125 36 74 C36.94875 73.566875 37.8975 73.13375 38.875 72.6875 C42.20041937 71.20697799 42.20041937 71.20697799 44 68 C44.16713569 65.37468476 44.16713569 65.37468476 44 63 C42.7934375 62.814375 42.7934375 62.814375 41.5625 62.625 C40.716875 62.41875 39.87125 62.2125 39 62 C38.67 61.34 38.34 60.68 38 60 C28.74413709 59.62419805 22.78713476 59.80857683 15 65 C14.67 66.32 14.34 67.64 14 69 C17.96 68.01 17.96 68.01 22 67 C22 67.66 22 68.32 22 69 C19.08291076 70.98362069 17.87619096 70.9876191 14.25 70.625 C13.1775 70.41875 12.105 70.2125 11 70 C10.01 67.03 10.01 67.03 9 64 C7.54263913 63.80508548 6.08405407 63.61930642 4.625 63.4375 C3.81289063 63.33308594 3.00078125 63.22867188 2.1640625 63.12109375 C-0.04899186 62.81762672 -0.04899186 62.81762672 -2 64 C-2 64.99 -2 65.98 -2 67 C0.31 68.32 2.62 69.64 5 71 C2.8839879 72.07511007 0.76345219 73.10615804 -1.40234375 74.078125 C-6.93471044 76.63545937 -10.82371851 78.70619752 -14 84 C-14.58478294 87.66925632 -14.58478294 87.66925632 -14 91 C-13.34 91.66 -12.68 92.32 -12 93 C-4.96747653 93 -0.33484914 90.4982231 5 86 C7.21278285 83.09572251 8.3371611 80.57933008 9 77 C2.53311311 78.47571697 2.53311311 78.47571697 -2 83 C-2.33417929 86.6675213 -2.33417929 86.6675213 -2 90 C-2.99 89.34 -3.98 88.68 -5 88 C-4.62472519 82.62106101 -3.00517004 80.51673467 1 77 C1.99 76.01 1.99 76.01 3 75 C6 74.75 6 74.75 9 75 C11 77 11 77 11.0625 79.625 C9.19070303 85.57070804 4.800355 90.09006984 -0.375 93.5 C-4.77202627 95.31945915 -8.30988511 95.87826476 -13 95 C-15.5625 93.4375 -15.5625 93.4375 -17 91 C-17.7773002 87.32548997 -17.71301624 85.12195203 -15.671875 81.91015625 C-11.97262545 77.43606389 -8.24097431 74.46634085 -3 72 C-2.34 72 -1.68 72 -1 72 C-1.680625 71.2575 -2.36125 70.515 -3.0625 69.75 C-5 67 -5 67 -4.875 64.8125 C-4 63 -4 63 -2 61 C2.66088476 60.21250277 6.08070088 60.39964139 10.0625 63 C10.701875 63.66 11.34125 64.32 12 65 C12.43570313 64.59007812 12.87140625 64.18015625 13.3203125 63.7578125 C20.85600394 56.93980596 27.07393113 56.7108912 37 57 C36.48050781 55.98421875 35.96101562 54.9684375 35.42578125 53.921875 C31.69089441 46.56598622 28.11830129 39.24057405 25.10546875 31.55078125 C24.03761592 28.93404946 24.03761592 28.93404946 22.44140625 26.40234375 C21 24 21 24 19.75 20.25 C17.47207323 13.96483033 13.50817941 8.60523482 7.875 5 C5.24319136 4.0845883 2.75521976 3.40517938 0 3 C0 2.01 0 1.02 0 0 Z " fill="#3A3A3A" transform="translate(939,434)"/>
<path d="M0 0 C17.49 0 34.98 0 53 0 C52.67 0.99 52.34 1.98 52 3 C51.22914063 3.12117188 50.45828125 3.24234375 49.6640625 3.3671875 C48.66117188 3.53476562 47.65828125 3.70234375 46.625 3.875 C45.62726562 4.03742188 44.62953125 4.19984375 43.6015625 4.3671875 C40.8574885 4.7958802 40.8574885 4.7958802 39 7 C38.2440259 13.28906115 40.22811772 17.60760915 42.875 23.125 C43.27340088 23.98375732 43.67180176 24.84251465 44.08227539 25.72729492 C46.26640979 30.41400382 48.51263646 35.07088235 50.75390625 39.73046875 C51.2020166 40.6642334 51.65012695 41.59799805 52.11181641 42.56005859 C52.97585218 44.3540069 53.84631865 46.14487648 54.72412109 47.93212891 C55.12324707 48.75503418 55.52237305 49.57793945 55.93359375 50.42578125 C56.28478271 51.14161377 56.63597168 51.85744629 56.99780273 52.5949707 C58.26362713 55.6326409 59.09593156 58.83576046 60 62 C53.73 62 47.46 62 41 62 C36.50275638 53.75505336 32.3099589 45.79063503 29 37 C26.55136017 30.90797337 23.57455428 25.07824779 20.5625 19.25 C20.1910083 18.51644287 19.8195166 17.78288574 19.43676758 17.02709961 C16.54563757 11.51385518 13.13904898 6.16672317 7 4 C4.67504723 3.61250787 2.34148732 3.27017161 0 3 C0 2.01 0 1.02 0 0 Z " fill="#363636" transform="translate(872,434)"/>
<path d="M0 0 C6.6 0 13.2 0 20 0 C20.53625 1.423125 21.0725 2.84625 21.625 4.3125 C23.60906816 9.32976588 26.09310517 13.91056966 28.828125 18.5546875 C30 21 30 21 30 25 C33.10644886 22.42479891 34.08626719 19.62300969 35.4375 15.875 C37.43123473 10.47983299 39.58591157 5.21928616 42 0 C43.98 0 45.96 0 48 0 C43.977994 17.77467167 35.19057452 35.34814323 28 52 C26.35 52 24.7 52 23 52 C21.74470448 49.54425197 20.49575374 47.08558452 19.25 44.625 C18.90195312 43.94566406 18.55390625 43.26632812 18.1953125 42.56640625 C15.8942265 38.00684695 13.92722719 33.39200113 12.06689453 28.63720703 C9.74301785 22.89292421 7.05542992 17.30290052 4.44726562 11.68359375 C4.01736328 10.74902344 3.58746094 9.81445312 3.14453125 8.8515625 C2.75628174 8.01447754 2.36803223 7.17739258 1.96801758 6.31494141 C1 4 1 4 0 0 Z " fill="#393939" transform="translate(999,539)"/>
<path d="M0 0 C6.6 0 13.2 0 20 0 C21.0725 2.475 22.145 4.95 23.25 7.5 C25.21175414 12.01353692 27.18362385 16.4974355 29.4375 20.875 C31 24 31 24 31 26 C31.66 26 32.32 26 33 26 C33.06316406 25.46375 33.12632812 24.9275 33.19140625 24.375 C34.55909514 15.6217911 38.30202299 7.96943709 42 0 C43.98 0 45.96 0 48 0 C47.40036008 3.34016736 46.58139388 6.38914212 45.36328125 9.5546875 C45.03626221 10.40949707 44.70924316 11.26430664 44.37231445 12.14501953 C43.8477063 13.49635986 43.8477063 13.49635986 43.3125 14.875 C42.77338989 16.27468018 42.77338989 16.27468018 42.22338867 17.70263672 C41.1544524 20.47060906 40.07870388 23.23582131 39 26 C38.70867188 26.74830078 38.41734375 27.49660156 38.1171875 28.26757812 C34.9839887 36.29069642 31.66357695 44.2027411 28 52 C23.42308014 51.50333925 23.42308014 51.50333925 21.55859375 49.28515625 C21.00365234 48.18494141 21.00365234 48.18494141 20.4375 47.0625 C20.025 46.24910156 19.6125 45.43570313 19.1875 44.59765625 C17.70545396 41.35568055 16.3465217 38.08569814 15.08984375 34.75 C11.63502218 26.03245739 7.45570716 17.62972049 3.359375 9.20117188 C2.7096875 7.85055664 2.7096875 7.85055664 2.046875 6.47265625 C1.65338867 5.66062744 1.25990234 4.84859863 0.85449219 4.01196289 C0 2 0 2 0 0 Z " fill="#393939" transform="translate(933,539)"/>
<path d="M0 0 C1.93259002 0.67935703 3.85451955 1.38390358 5.77636719 2.09301758 C11.08661042 3.98826281 15.71110915 4.47341932 21.2890625 3.8828125 C21.2890625 4.5428125 21.2890625 5.2028125 21.2890625 5.8828125 C16.06701702 8.49383524 10.11829694 6.48791252 4.8515625 4.8828125 C2.99724609 4.3259375 2.99724609 4.3259375 1.10546875 3.7578125 C-0.28865234 3.3246875 -0.28865234 3.3246875 -1.7109375 2.8828125 C-1.7521875 4.0171875 -1.7934375 5.1515625 -1.8359375 6.3203125 C-2.38492481 11.42507511 -3.95891892 16.06360431 -5.6484375 20.8828125 C-5.91350098 21.64907959 -6.17856445 22.41534668 -6.45166016 23.20483398 C-8.45641405 28.75555078 -8.45641405 28.75555078 -10.7109375 29.8828125 C-10.11927387 25.75946595 -9.17657709 22.05101361 -7.7734375 18.1328125 C-5.92240397 12.74798768 -4.69985838 7.48669749 -3.7109375 1.8828125 C-8.3309375 1.8828125 -12.9509375 1.8828125 -17.7109375 1.8828125 C-17.7109375 2.8728125 -17.7109375 3.8628125 -17.7109375 4.8828125 C-18.7009375 4.8828125 -19.6909375 4.8828125 -20.7109375 4.8828125 C-20.4564415 6.36487745 -20.18181988 7.84349865 -19.8984375 9.3203125 C-19.74761719 10.14402344 -19.59679688 10.96773438 -19.44140625 11.81640625 C-19.20035156 12.49832031 -18.95929688 13.18023437 -18.7109375 13.8828125 C-17.7209375 14.2128125 -16.7309375 14.5428125 -15.7109375 14.8828125 C-16.3709375 14.8828125 -17.0309375 14.8828125 -17.7109375 14.8828125 C-17.5871875 16.1821875 -17.5871875 16.1821875 -17.4609375 17.5078125 C-17.84709729 22.72096968 -20.31820926 25.60003649 -24.0859375 29.0703125 C-29.39788406 32.73808512 -33.25599475 34.21488563 -39.66015625 34.28125 C-42.24405985 33.77923444 -43.11079872 32.94013379 -44.7109375 30.8828125 C-45.78759428 27.42212999 -45.8732836 25.42783154 -44.8359375 21.9453125 C-41.45363638 17.07081971 -36.78791952 12.65421275 -30.921875 11.18359375 C-30.19226562 11.08433594 -29.46265625 10.98507812 -28.7109375 10.8828125 C-28.7109375 10.2228125 -28.7109375 9.5628125 -28.7109375 8.8828125 C-30.0309375 8.2228125 -31.3509375 7.5628125 -32.7109375 6.8828125 C-32.8984375 4.5078125 -32.8984375 4.5078125 -32.7109375 1.8828125 C-29.08813552 -0.53238882 -27.43524613 -0.29943076 -23.1484375 -0.1796875 C-14.93255175 0.03097624 -8.36301335 -2.51770718 0 0 Z " fill="#F4F4F4" transform="translate(1102.7109375,495.1171875)"/>
<path d="M0 0 C16.17 0 32.34 0 49 0 C49 0.99 49 1.98 49 3 C48.2265625 3.13535156 47.453125 3.27070313 46.65625 3.41015625 C39.12435396 4.96687239 33.73839393 6.75798211 29 13 C23.44259421 22.05349053 19.61776442 32.05421374 16 42 C15.12986557 44.29351852 14.25488693 46.58520523 13.375 48.875 C12.76205078 50.47021484 12.76205078 50.47021484 12.13671875 52.09765625 C10.83003233 55.43397245 9.44801527 58.72291281 8 62 C6.02 62 4.04 62 2 62 C2.51889432 57.02361592 3.59253017 53.22366073 5.8125 48.75 C8.21410901 43.75190202 10.25697807 38.78112277 12.0546875 33.5390625 C12.95875192 31.1107903 14.05623038 28.92071081 15.25 26.625 C17.78325849 20.9660274 18.32683989 15.0562508 17 9 C14.22846626 5.43137608 10.78609216 4.35501678 6.46484375 3.49609375 C4.2996641 3.22501738 2.18027682 3.05551631 0 3 C0 2.01 0 1.02 0 0 Z " fill="#3E3E3E" transform="translate(1057,434)"/>
<path d="M0 0 C1.31291016 -0.02513672 1.31291016 -0.02513672 2.65234375 -0.05078125 C5.0625 0.3125 5.0625 0.3125 6.87890625 1.70703125 C8.0625 3.3125 8.0625 3.3125 8.0625 5.3125 C7.4025 5.3125 6.7425 5.3125 6.0625 5.3125 C5.7325 4.6525 5.4025 3.9925 5.0625 3.3125 C-0.07851356 2.15568636 -0.07851356 2.15568636 -4.9375 3.3125 C-4.9375 4.3025 -4.9375 5.2925 -4.9375 6.3125 C-2.2975 7.6325 0.3425 8.9525 3.0625 10.3125 C2.7325 11.6325 2.4025 12.9525 2.0625 14.3125 C2.866875 14.456875 3.67125 14.60125 4.5 14.75 C7.0625 15.3125 7.0625 15.3125 8.0625 16.3125 C7.87497578 21.09436751 7.02762785 24.33684609 3.703125 27.890625 C-1.52278443 32.4197465 -6.9565132 35.23918798 -13.984375 34.796875 C-15.9375 34.3125 -15.9375 34.3125 -18.5 32.1875 C-20.26783071 28.65183859 -20.77784017 27.20862263 -19.9375 23.3125 C-16.30052719 17.78216193 -11.90943656 14.06877841 -5.9375 11.3125 C-4.9475 11.3125 -3.9575 11.3125 -2.9375 11.3125 C-2.9375 10.6525 -2.9375 9.9925 -2.9375 9.3125 C-4.2575 8.6525 -5.5775 7.9925 -6.9375 7.3125 C-7.0625 4.9375 -7.0625 4.9375 -6.9375 2.3125 C-4.42737037 -0.19762963 -3.46944763 0.01528391 0 0 Z " fill="#F2F2F2" transform="translate(1046.9375,494.6875)"/>
<path d="M0 0 C0.66 0 1.32 0 2 0 C1.69078116 1.45903258 1.37751201 2.91720722 1.0625 4.375 C0.88847656 5.18710937 0.71445312 5.99921875 0.53515625 6.8359375 C0 9 0 9 -1 11 C1.97 11 4.94 11 8 11 C7.01 11.33 6.02 11.66 5 12 C5 12.66 5 13.32 5 14 C5.928125 14.268125 6.85625 14.53625 7.8125 14.8125 C12.33043478 16.49565217 12.33043478 16.49565217 14 19 C14.5 21.4375 14.5 21.4375 14 24 C11.37101534 26.6194073 9.72039203 27.88858944 6.01953125 28.4609375 C-0.85586353 28.27670037 -7.32123045 27.68853767 -14 26 C-14 25.34 -14 24.68 -14 24 C-12.02 24 -10.04 24 -8 24 C-6.515 18.555 -6.515 18.555 -5 13 C-5.99 12.34 -6.98 11.68 -8 11 C-6.35 11 -4.7 11 -3 11 C-2.86722656 10.28972656 -2.73445312 9.57945312 -2.59765625 8.84765625 C-2.42105469 7.92855469 -2.24445312 7.00945312 -2.0625 6.0625 C-1.88847656 5.14597656 -1.71445312 4.22945313 -1.53515625 3.28515625 C-1 1 -1 1 0 0 Z " fill="#F5F5F5" transform="translate(966,498)"/>
<path d="M0 0 C0 0.66 0 1.32 0 2 C0.99 2.33 1.98 2.66 3 3 C2.113125 3.226875 1.22625 3.45375 0.3125 3.6875 C-3.55320011 5.2191925 -5.41784273 6.75385944 -8 10 C-8.87989974 13.18150892 -8.87989974 13.18150892 -9 16 C-8.67 16 -8.34 16 -8 16 C-8.144375 15.29875 -8.28875 14.5975 -8.4375 13.875 C-7.83384577 9.90812937 -5.95214895 8.59319662 -2.890625 6.16015625 C-0.48233477 4.68234179 1.23192595 4.49671381 4 5 C3.6891405 9.35203302 2.68438644 12.27038641 -0.27734375 15.54296875 C-4.33323753 18.97346394 -9.35810212 21.80501188 -14.69921875 22.19921875 C-17 22 -17 22 -18.8125 20.9375 C-20.7639166 17.75360975 -20.54921735 15.66144898 -20 12 C-16.11890018 4.84660033 -8.04741331 0 0 0 Z " fill="#F4F4F4" transform="translate(944,506)"/>
<path d="M0 0 C1.93259002 0.67935703 3.85451955 1.38390358 5.77636719 2.09301758 C11.08661042 3.98826281 15.71110915 4.47341932 21.2890625 3.8828125 C21.2890625 4.5428125 21.2890625 5.2028125 21.2890625 5.8828125 C16.06701702 8.49383524 10.11829694 6.48791252 4.8515625 4.8828125 C2.99724609 4.3259375 2.99724609 4.3259375 1.10546875 3.7578125 C-0.28865234 3.3246875 -0.28865234 3.3246875 -1.7109375 2.8828125 C-1.7521875 4.0171875 -1.7934375 5.1515625 -1.8359375 6.3203125 C-2.38492481 11.42507511 -3.95891892 16.06360431 -5.6484375 20.8828125 C-5.91350098 21.64907959 -6.17856445 22.41534668 -6.45166016 23.20483398 C-8.45641405 28.75555078 -8.45641405 28.75555078 -10.7109375 29.8828125 C-10.11927387 25.75946595 -9.17657709 22.05101361 -7.7734375 18.1328125 C-5.92240397 12.74798768 -4.69985838 7.48669749 -3.7109375 1.8828125 C-8.3309375 1.8828125 -12.9509375 1.8828125 -17.7109375 1.8828125 C-17.7109375 2.5428125 -17.7109375 3.2028125 -17.7109375 3.8828125 C-18.7009375 3.8828125 -19.6909375 3.8828125 -20.7109375 3.8828125 C-20.7109375 3.2228125 -20.7109375 2.5628125 -20.7109375 1.8828125 C-23.3509375 1.8828125 -25.9909375 1.8828125 -28.7109375 1.8828125 C-29.0409375 3.2028125 -29.3709375 4.5228125 -29.7109375 5.8828125 C-27.4009375 7.2028125 -25.0909375 8.5228125 -22.7109375 9.8828125 C-24.81358957 10.95351782 -26.91835552 11.97419965 -29.078125 12.92578125 C-34.6844564 15.48443405 -39.86578492 18.15618624 -42.7109375 23.8828125 C-42.74947044 27.71956858 -42.74947044 27.71956858 -41.7109375 30.8828125 C-36.34135259 32.22520873 -33.41389192 31.83377933 -28.57421875 29.13671875 C-25.93200995 27.35862855 -23.82445064 25.25250905 -21.7109375 22.8828125 C-21.3809375 22.5528125 -21.0509375 22.2228125 -20.7109375 21.8828125 C-20.63913786 20.36353212 -20.62701743 18.84113768 -20.6484375 17.3203125 C-20.65746094 16.49402344 -20.66648437 15.66773438 -20.67578125 14.81640625 C-20.68738281 14.17832031 -20.69898438 13.54023438 -20.7109375 12.8828125 C-18.2359375 13.3778125 -18.2359375 13.3778125 -15.7109375 13.8828125 C-16.7009375 14.3778125 -16.7009375 14.3778125 -17.7109375 14.8828125 C-17.5871875 16.1821875 -17.5871875 16.1821875 -17.4609375 17.5078125 C-17.84709729 22.72096968 -20.31820926 25.60003649 -24.0859375 29.0703125 C-29.39788406 32.73808512 -33.25599475 34.21488563 -39.66015625 34.28125 C-42.24405985 33.77923444 -43.11079872 32.94013379 -44.7109375 30.8828125 C-45.78759428 27.42212999 -45.8732836 25.42783154 -44.8359375 21.9453125 C-41.45363638 17.07081971 -36.78791952 12.65421275 -30.921875 11.18359375 C-30.19226562 11.08433594 -29.46265625 10.98507812 -28.7109375 10.8828125 C-28.7109375 10.2228125 -28.7109375 9.5628125 -28.7109375 8.8828125 C-30.0309375 8.2228125 -31.3509375 7.5628125 -32.7109375 6.8828125 C-32.8984375 4.5078125 -32.8984375 4.5078125 -32.7109375 1.8828125 C-29.08813552 -0.53238882 -27.43524613 -0.29943076 -23.1484375 -0.1796875 C-14.93255175 0.03097624 -8.36301335 -2.51770718 0 0 Z " fill="#636363" transform="translate(1102.7109375,495.1171875)"/>
<path d="M0 0 C0.33 0 0.66 0 1 0 C1.13690844 7.72772107 0.75166913 15.30881404 0 23 C0.59167969 22.01 1.18335938 21.02 1.79296875 20 C3.81866206 16.61327391 5.85242924 13.23146579 7.88867188 9.85107422 C8.81256618 8.31219755 9.72771851 6.76807653 10.640625 5.22265625 C11.70606774 3.44798806 12.84373561 1.71687742 14 0 C14.66 0 15.32 0 16 0 C15.72285156 0.98097656 15.44570312 1.96195312 15.16015625 2.97265625 C12.42621102 13.02304022 11 22.55240133 11 33 C10.34 33 9.68 33 9 33 C7.40587716 29.81175432 7.89825265 26.37103338 7.9375 22.875 C7.94201172 22.12089844 7.94652344 21.36679687 7.95117188 20.58984375 C7.96296501 18.72652873 7.98090058 16.86325445 8 15 C7.44570313 15.83144531 6.89140625 16.66289062 6.3203125 17.51953125 C3.546875 21.6796875 0.7734375 25.83984375 -2 30 C-2.66 30 -3.32 30 -4 30 C-4.20963173 25.07365437 -3.65938869 20.89052662 -2.4375 16.11328125 C-1.86484979 13.70685835 -1.86484979 13.70685835 -2 10 C-2.3403125 10.76183594 -2.680625 11.52367187 -3.03125 12.30859375 C-6.74707646 20.22449001 -11.33728656 29.62358807 -20 33 C-23.625 33.25 -23.625 33.25 -27 33 C-27.66 32.34 -28.32 31.68 -29 31 C-28.79013448 28.27174823 -28.3151619 26.48103659 -26.8125 24.1875 C-24.20638339 22.48004429 -22.0400645 22.79732903 -19 23 C-20 25 -20 25 -23.0625 26.125 C-24.5165625 26.558125 -24.5165625 26.558125 -26 27 C-26 27.99 -26 28.98 -26 30 C-21.2523672 30.3312302 -18.88399973 29.71455831 -15 27 C-8.98158875 20.49110149 -5.72588836 12.31951485 -2.3828125 4.24609375 C-1 1 -1 1 0 0 Z " fill="#6C6C6C" transform="translate(1012,494)"/>
<path d="M0 0 C0 0.33 0 0.66 0 1 C-1.62808594 1.14695312 -1.62808594 1.14695312 -3.2890625 1.296875 C-4.73446565 1.44704676 -6.17977353 1.59813732 -7.625 1.75 C-8.69427734 1.8428125 -8.69427734 1.8428125 -9.78515625 1.9375 C-14.76624537 2.48587678 -18.08313513 3.64957405 -22 7 C-22.33 8.32 -22.66 9.64 -23 11 C-20.36 10.34 -17.72 9.68 -15 9 C-15 9.66 -15 10.32 -15 11 C-17.91708924 12.98362069 -19.12380904 12.9876191 -22.75 12.625 C-23.8225 12.41875 -24.895 12.2125 -26 12 C-26.66 10.02 -27.32 8.04 -28 6 C-29.45736087 5.80508548 -30.91594593 5.61930642 -32.375 5.4375 C-33.18710937 5.33308594 -33.99921875 5.22867187 -34.8359375 5.12109375 C-37.04899186 4.81762672 -37.04899186 4.81762672 -39 6 C-39 6.99 -39 7.98 -39 9 C-36.69 10.32 -34.38 11.64 -32 13 C-34.1160121 14.07511007 -36.23654781 15.10615804 -38.40234375 16.078125 C-43.93471044 18.63545937 -47.82371851 20.70619752 -51 26 C-51.58478294 29.66925632 -51.58478294 29.66925632 -51 33 C-50.34 33.66 -49.68 34.32 -49 35 C-41.96747653 35 -37.33484914 32.4982231 -32 28 C-29.78721715 25.09572251 -28.6628389 22.57933008 -28 19 C-34.46688689 20.47571697 -34.46688689 20.47571697 -39 25 C-39.33417929 28.6675213 -39.33417929 28.6675213 -39 32 C-39.99 31.34 -40.98 30.68 -42 30 C-41.62472519 24.62106101 -40.00517004 22.51673467 -36 19 C-35.34 18.34 -34.68 17.68 -34 17 C-31 16.75 -31 16.75 -28 17 C-26 19 -26 19 -25.9375 21.625 C-27.80929697 27.57070804 -32.199645 32.09006984 -37.375 35.5 C-41.77202627 37.31945915 -45.30988511 37.87826476 -50 37 C-52.5625 35.4375 -52.5625 35.4375 -54 33 C-54.7773002 29.32548997 -54.71301624 27.12195203 -52.671875 23.91015625 C-48.97262545 19.43606389 -45.24097431 16.46634085 -40 14 C-39.34 14 -38.68 14 -38 14 C-39.0209375 12.88625 -39.0209375 12.88625 -40.0625 11.75 C-42 9 -42 9 -41.875 6.8125 C-41 5 -41 5 -39 3 C-34.33911524 2.21250277 -30.91929912 2.39964139 -26.9375 5 C-26.298125 5.66 -25.65875 6.32 -25 7 C-24.56429687 6.59007812 -24.12859375 6.18015625 -23.6796875 5.7578125 C-15.92656085 -1.25692113 -10.14424298 -1.21468282 0 0 Z " fill="#6C6C6C" transform="translate(976,492)"/>
<path d="M0 0 C3.84232715 2.37858347 3.84232715 2.37858347 4.53125 5.09375 C4.4298401 12.90231216 2.9324592 21.17178622 -2.4375 27.1875 C-5 29 -5 29 -7.625 29.5625 C-10 29 -10 29 -11.75 27.1875 C-13 25 -13 25 -14 22 C-14.36351562 22.5053125 -14.72703125 23.010625 -15.1015625 23.53125 C-19.19977585 28.82740263 -19.19977585 28.82740263 -23.1875 29.6875 C-26 29 -26 29 -27.9375 27.4375 C-30.50891344 21.53837505 -27.12099098 15.25166067 -24.9375 9.6484375 C-24.03672872 7.10375865 -23.4602389 4.655962 -23 2 C-24.44096586 2.42594588 -25.87768712 2.86626633 -27.3125 3.3125 C-28.51326172 3.67794922 -28.51326172 3.67794922 -29.73828125 4.05078125 C-32.15943088 5.06691141 -33.41333683 5.91813622 -35 8 C-35.3862557 12.24881273 -35.3297964 15.35969312 -33 19 C-36.875 17.25 -36.875 17.25 -38 15 C-38.41307941 10.35285663 -37.89446841 7.69294245 -35 4 C-30.75523296 0.48290731 -27.28347315 0.64776846 -22 1 C-21.67 1.33 -21.34 1.66 -21 2 C-21.33819496 6.05833955 -22.1289303 9.54406995 -23.5 13.375 C-25.10552673 17.92529772 -25.61887261 22.1977949 -26 27 C-21.2281309 26.26980968 -21.2281309 26.26980968 -17.52734375 23.40234375 C-14.40757058 18.60342662 -12.56068044 13.48141422 -11 8 C-10.67 8 -10.34 8 -10 8 C-10 13.94 -10 19.88 -10 26 C-8.35 26 -6.7 26 -5 26 C0.77886149 20.11898692 1.10918233 13.07901481 1.1328125 5.3046875 C1.09134737 2.83883434 1.09134737 2.83883434 0 0 Z " fill="#6F6F6F" transform="translate(917,497)"/>
<path d="M0 0 C1.31291016 -0.02513672 1.31291016 -0.02513672 2.65234375 -0.05078125 C5.0625 0.3125 5.0625 0.3125 6.87890625 1.70703125 C8.0625 3.3125 8.0625 3.3125 8.0625 5.3125 C7.4025 5.3125 6.7425 5.3125 6.0625 5.3125 C5.7325 4.6525 5.4025 3.9925 5.0625 3.3125 C-0.07851356 2.15568636 -0.07851356 2.15568636 -4.9375 3.3125 C-4.9375 4.3025 -4.9375 5.2925 -4.9375 6.3125 C-2.2975 7.6325 0.3425 8.9525 3.0625 10.3125 C0.78472219 11.45138891 -1.50182523 12.57396047 -3.8125 13.64453125 C-4.84375 14.13308594 -5.875 14.62164062 -6.9375 15.125 C-7.96875 15.60582031 -9 16.08664062 -10.0625 16.58203125 C-13.22335613 18.48455743 -14.93077022 20.23107607 -16.9375 23.3125 C-17.43820321 26.93892666 -17.43820321 26.93892666 -16.9375 30.3125 C-15.09166667 32.55833333 -15.09166667 32.55833333 -12.3125 32.6875 C-6.16472828 32.00441425 -1.65462572 29.4381141 2.5 24.875 C4.69383742 22.11635349 5.84423489 19.91387432 6.0625 16.3125 C2.13592175 17.14312232 -0.39480056 17.81154667 -3.375 20.5625 C-5.18728804 23.75212694 -5.27343482 25.70120073 -4.9375 29.3125 C-5.5975 28.9825 -6.2575 28.6525 -6.9375 28.3125 C-7.38252402 25.2715025 -7.38586964 23.10317334 -5.84765625 20.390625 C-3.12853332 16.89976161 -1.54184488 15.48373105 2.8125 14.25 C6.0625 14.3125 6.0625 14.3125 8.0625 16.3125 C7.97040008 21.10169563 7.02120088 24.3437163 3.703125 27.890625 C-1.52278443 32.4197465 -6.9565132 35.23918798 -13.984375 34.796875 C-15.9375 34.3125 -15.9375 34.3125 -18.5 32.1875 C-20.26783071 28.65183859 -20.77784017 27.20862263 -19.9375 23.3125 C-16.30052719 17.78216193 -11.90943656 14.06877841 -5.9375 11.3125 C-4.9475 11.3125 -3.9575 11.3125 -2.9375 11.3125 C-2.9375 10.6525 -2.9375 9.9925 -2.9375 9.3125 C-4.2575 8.6525 -5.5775 7.9925 -6.9375 7.3125 C-7.0625 4.9375 -7.0625 4.9375 -6.9375 2.3125 C-4.42737037 -0.19762963 -3.46944763 0.01528391 0 0 Z " fill="#676767" transform="translate(1046.9375,494.6875)"/>
<path d="M0 0 C0.66 0 1.32 0 2 0 C1.69078116 1.45903258 1.37751201 2.91720722 1.0625 4.375 C0.88847656 5.18710937 0.71445312 5.99921875 0.53515625 6.8359375 C0 9 0 9 -1 11 C1.97 11 4.94 11 8 11 C7.01 11.33 6.02 11.66 5 12 C5 12.66 5 13.32 5 14 C5.928125 14.268125 6.85625 14.53625 7.8125 14.8125 C12.33043478 16.49565217 12.33043478 16.49565217 14 19 C14.5 21.4375 14.5 21.4375 14 24 C11.37101534 26.6194073 9.72039203 27.88858944 6.01953125 28.4609375 C-0.85586353 28.27670037 -7.32123045 27.68853767 -14 26 C-14 25.34 -14 24.68 -14 24 C-13.01644531 24.16242187 -12.03289063 24.32484375 -11.01953125 24.4921875 C-6.89723244 25.07975263 -2.84549789 25.1481214 1.3125 25.125 C2.38467773 25.13080078 2.38467773 25.13080078 3.47851562 25.13671875 C7.36711546 25.19815533 7.36711546 25.19815533 11 24 C11 22.35 11 20.7 11 19 C9.21046815 18.16209211 7.41830305 17.32980604 5.625 16.5 C4.12839844 15.80390625 4.12839844 15.80390625 2.6015625 15.09375 C0.16307374 13.8708127 0.16307374 13.8708127 -2 14 C-2.19335938 14.63808594 -2.38671875 15.27617188 -2.5859375 15.93359375 C-2.84632813 16.75988281 -3.10671875 17.58617187 -3.375 18.4375 C-3.63023437 19.26121094 -3.88546875 20.08492187 -4.1484375 20.93359375 C-5 23 -5 23 -7 24 C-6 16.57142857 -6 16.57142857 -5 13 C-5.99 12.34 -6.98 11.68 -8 11 C-6.35 11 -4.7 11 -3 11 C-2.86722656 10.28972656 -2.73445312 9.57945312 -2.59765625 8.84765625 C-2.42105469 7.92855469 -2.24445312 7.00945312 -2.0625 6.0625 C-1.88847656 5.14597656 -1.71445312 4.22945313 -1.53515625 3.28515625 C-1 1 -1 1 0 0 Z " fill="#676767" transform="translate(966,498)"/>
<path d="M0 0 C3.0625 0.125 3.0625 0.125 5.0625 1.125 C5.0625 1.785 5.0625 2.445 5.0625 3.125 C6.0525 3.455 7.0425 3.785 8.0625 4.125 C7.0725 4.125 6.0825 4.125 5.0625 4.125 C5.7225 6.765 6.3825 9.405 7.0625 12.125 C6.4025 12.125 5.7425 12.125 5.0625 12.125 C5.0625 13.115 5.0625 14.105 5.0625 15.125 C3.94875 15.558125 2.835 15.99125 1.6875 16.4375 C-2.11262334 17.82411119 -2.11262334 17.82411119 -3.9375 21.125 C-4.01655064 23.45699388 -4.02548769 25.79332622 -3.9375 28.125 C-4.9275 27.795 -5.9175 27.465 -6.9375 27.125 C-7.38753355 24.04977077 -7.40944521 21.90680823 -5.77734375 19.203125 C-3.36734433 16.21990321 -1.76180736 14.39379588 1.9375 13.1875 C2.63875 13.166875 3.34 13.14625 4.0625 13.125 C2.88505415 9.59266245 2.10644359 9.26191925 -1 7.4375 C-1.73347656 7.00050781 -2.46695312 6.56351562 -3.22265625 6.11328125 C-3.78855469 5.78714844 -4.35445312 5.46101563 -4.9375 5.125 C-3.81691788 0.16242204 -3.81691788 0.16242204 0 0 Z " fill="#6C6C6C" transform="translate(1076.9375,495.875)"/>
<path d="M0 0 C0.66 0 1.32 0 2 0 C1.72285156 0.98097656 1.44570312 1.96195312 1.16015625 2.97265625 C-1.57378898 13.02304022 -3 22.55240133 -3 33 C-3.66 33 -4.32 33 -5 33 C-6.59412284 29.81175432 -6.10174735 26.37103338 -6.0625 22.875 C-6.05798828 22.12089844 -6.05347656 21.36679687 -6.04882812 20.58984375 C-6.03703499 18.72652873 -6.01909942 16.86325445 -6 15 C-8.31 18.63 -10.62 22.26 -13 26 C-13.99 25.67 -14.98 25.34 -16 25 C-15.505 23.515 -15.505 23.515 -15 22 C-14.67 22.33 -14.34 22.66 -14 23 C-13.40832031 22.01 -12.81664062 21.02 -12.20703125 20 C-10.18133794 16.61327391 -8.14757076 13.23146579 -6.11132812 9.85107422 C-5.18743382 8.31219755 -4.27228149 6.76807653 -3.359375 5.22265625 C-2.29393226 3.44798806 -1.15626439 1.71687742 0 0 Z " fill="#6D6D6D" transform="translate(1026,494)"/>
<path d="M0 0 C7.5055262 -0.70218021 13.50341419 0.6322076 20.48681641 3.21044922 C25.79759633 5.10471401 30.42171555 5.59064188 36 5 C36 5.66 36 6.32 36 7 C30.77795452 9.61102274 24.82923444 7.60510002 19.5625 6 C18.32628906 5.62875 17.09007812 5.2575 15.81640625 4.875 C14.88699219 4.58625 13.95757813 4.2975 13 4 C12.95875 5.134375 12.9175 6.26875 12.875 7.4375 C12.32601269 12.54226261 10.75201858 17.18079181 9.0625 22 C8.79743652 22.76626709 8.53237305 23.53253418 8.25927734 24.32202148 C6.25452345 29.87273828 6.25452345 29.87273828 4 31 C4.59166363 26.87665345 5.53436041 23.16820111 6.9375 19.25 C8.78853353 13.86517518 10.01107912 8.60388499 11 3 C7.37 2.34 3.74 1.68 0 1 C0 0.67 0 0.34 0 0 Z " fill="#717171" transform="translate(1088,494)"/>
<path d="M0 0 C3 0.25 3 0.25 5 2.25 C5.12912163 7.67310864 2.4927293 10.65862867 -1.046875 14.4140625 C-5.16327429 18.28347784 -8.91694619 20.44777787 -14.6875 20.75 C-17.81018831 20.59546423 -18.87664169 20.33123596 -21.5625 18.5625 C-23.23301458 15.87515045 -23.34538204 14.35843835 -23 11.25 C-22.731875 11.848125 -22.46375 12.44625 -22.1875 13.0625 C-20.59696782 16.11756092 -20.59696782 16.11756092 -18 18.25 C-10.99015054 18.37085947 -6.30082142 15.7195317 -1 11.25 C1.21278285 8.34572251 2.3371611 5.82933008 3 2.25 C-3.46688689 3.72571697 -3.46688689 3.72571697 -8 8.25 C-8.33417929 11.9175213 -8.33417929 11.9175213 -8 15.25 C-8.99 14.59 -9.98 13.93 -11 13.25 C-10.62472519 7.87106101 -9.00517004 5.76673467 -5 2.25 C-3 0.25 -3 0.25 0 0 Z " fill="#666666" transform="translate(945,508.75)"/>
<path d="M0 0 C1.20366211 0.00966797 1.20366211 0.00966797 2.43164062 0.01953125 C3.26501953 0.03628906 4.09839844 0.05304688 4.95703125 0.0703125 C6.22450195 0.08384766 6.22450195 0.08384766 7.51757812 0.09765625 C9.60168368 0.12120547 11.68564342 0.15707603 13.76953125 0.1953125 C10.76953125 2.1953125 10.76953125 2.1953125 7.76953125 2.1953125 C7.76953125 2.8553125 7.76953125 3.5153125 7.76953125 4.1953125 C6.77953125 4.1953125 5.78953125 4.1953125 4.76953125 4.1953125 C4.76953125 3.5353125 4.76953125 2.8753125 4.76953125 2.1953125 C2.12953125 2.1953125 -0.51046875 2.1953125 -3.23046875 2.1953125 C-3.56046875 3.5153125 -3.89046875 4.8353125 -4.23046875 6.1953125 C-0.76546875 8.1753125 -0.76546875 8.1753125 2.76953125 10.1953125 C0.62106866 11.27702104 -1.5333971 12.34031612 -3.703125 13.37890625 C-4.55777344 13.79269531 -5.41242188 14.20648438 -6.29296875 14.6328125 C-7.15019531 15.04402344 -8.00742188 15.45523437 -8.890625 15.87890625 C-11.09966116 17.12171958 -12.47470454 18.4082884 -14.23046875 20.1953125 C-14.89046875 20.1953125 -15.55046875 20.1953125 -16.23046875 20.1953125 C-14.72095692 15.96867936 -12.04530335 14.36453218 -8.23046875 12.1953125 C-5.35546875 11.4453125 -5.35546875 11.4453125 -3.23046875 11.1953125 C-3.23046875 10.5353125 -3.23046875 9.8753125 -3.23046875 9.1953125 C-4.55046875 8.5353125 -5.87046875 7.8753125 -7.23046875 7.1953125 C-7.41796875 4.8203125 -7.41796875 4.8203125 -7.23046875 2.1953125 C-4.12961304 0.12807536 -3.50115194 -0.04966173 0 0 Z " fill="#646464" transform="translate(1077.23046875,494.8046875)"/>
<path d="M0 0 C0.33 0.33 0.66 0.66 1 1 C0.57823401 6.27207486 -0.78465517 10.28035231 -3 15 C-4.25127906 11.45332822 -3.72285053 9.27746562 -2.5625 5.75 C-2.13130859 4.41195313 -2.13130859 4.41195313 -1.69140625 3.046875 C-1.46324219 2.37140625 -1.23507812 1.6959375 -1 1 C-2.44096586 1.42594588 -3.87768712 1.86626633 -5.3125 2.3125 C-6.51326172 2.67794922 -6.51326172 2.67794922 -7.73828125 3.05078125 C-10.15943088 4.06691141 -11.41333683 4.91813622 -13 7 C-13.3862557 11.24881273 -13.3297964 14.35969312 -11 18 C-14.875 16.25 -14.875 16.25 -16 14 C-16.41307941 9.35285663 -15.89446841 6.69294245 -13 3 C-8.75523296 -0.51709269 -5.28347315 -0.35223154 0 0 Z " fill="#646464" transform="translate(895,498)"/>
<path d="M0 0 C0 0.33 0 0.66 0 1 C-1.08539062 1.09796875 -2.17078125 1.1959375 -3.2890625 1.296875 C-4.73446565 1.44704676 -6.17977353 1.59813732 -7.625 1.75 C-8.69427734 1.8428125 -8.69427734 1.8428125 -9.78515625 1.9375 C-14.76624537 2.48587678 -18.08313513 3.64957405 -22 7 C-22.33 8.32 -22.66 9.64 -23 11 C-20.36 10.34 -17.72 9.68 -15 9 C-15 9.66 -15 10.32 -15 11 C-17.91708924 12.98362069 -19.12380904 12.9876191 -22.75 12.625 C-23.8225 12.41875 -24.895 12.2125 -26 12 C-26.33 10.68 -26.66 9.36 -27 8 C-17.58224186 0.17279657 -12.19653984 -1.4604271 0 0 Z " fill="#7E7E7E" transform="translate(976,492)"/>
<path d="M0 0 C0.33 0 0.66 0 1 0 C1.48032656 8.71703754 0.07313419 16.54704214 -2 25 C-1.34 25 -0.68 25 0 25 C-0.99 27.475 -0.99 27.475 -2 30 C-2.66 30 -3.32 30 -4 30 C-4.21050339 25.05317032 -3.60179044 20.88459416 -2.44921875 16.078125 C-1.63451337 12.30922706 -1.78720251 9.63839248 -3 6 C-1.5625 2.8125 -1.5625 2.8125 0 0 Z " fill="#6C6C6C" transform="translate(1012,494)"/>
<path d="M0 0 C17.49 0 34.98 0 53 0 C52.67 0.66 52.34 1.32 52 2 C36.49 1.67 20.98 1.34 5 1 C5 1.66 5 2.32 5 3 C3.35 3 1.7 3 0 3 C0 2.01 0 1.02 0 0 Z " fill="#575757" transform="translate(872,434)"/>
<path d="M0 0 C3.0625 0.125 3.0625 0.125 5.0625 1.125 C4.4025 3.435 3.7425 5.745 3.0625 8.125 C-2.6875 7.375 -2.6875 7.375 -4.9375 5.125 C-4.34725704 1.22939645 -4.09557603 0.17427983 0 0 Z " fill="#F3F3F3" transform="translate(1076.9375,495.875)"/>
<path d="M0 0 C1.31291016 -0.02513672 1.31291016 -0.02513672 2.65234375 -0.05078125 C5.0625 0.3125 5.0625 0.3125 6.87890625 1.70703125 C8.0625 3.3125 8.0625 3.3125 8.0625 5.3125 C7.4025 5.3125 6.7425 5.3125 6.0625 5.3125 C5.7325 4.6525 5.4025 3.9925 5.0625 3.3125 C-0.07851356 2.15568636 -0.07851356 2.15568636 -4.9375 3.3125 C-4.9375 4.3025 -4.9375 5.2925 -4.9375 6.3125 C-2.2975 7.6325 0.3425 8.9525 3.0625 10.3125 C-0.54411066 12.11580533 -3.02143425 12.77849103 -6.9375 13.3125 C-6.6075 12.6525 -6.2775 11.9925 -5.9375 11.3125 C-4.9475 11.3125 -3.9575 11.3125 -2.9375 11.3125 C-2.9375 10.6525 -2.9375 9.9925 -2.9375 9.3125 C-4.2575 8.6525 -5.5775 7.9925 -6.9375 7.3125 C-7.0625 4.9375 -7.0625 4.9375 -6.9375 2.3125 C-4.42737037 -0.19762963 -3.46944763 0.01528391 0 0 Z " fill="#636363" transform="translate(1046.9375,494.6875)"/>
<path d="M0 0 C1.9078584 3.1749094 2.1609041 5.10585211 1.625 8.75 C1.51414062 9.54921875 1.40328125 10.3484375 1.2890625 11.171875 C1.19367187 11.77515625 1.09828125 12.3784375 1 13 C6.71863052 11.71860673 6.71863052 11.71860673 11 8 C11 11 11 11 9.375 13.1875 C7 15 7 15 3.9375 15.5 C1 15 1 15 -0.9375 13.4375 C-2.85817645 9.03124225 -1.25341981 4.47649932 0 0 Z " fill="#7F7F7F" transform="translate(890,511)"/>
<path d="M0 0 C0.96088383 2.88265149 1.11670941 4.67662271 1.09765625 7.66796875 C1.09282227 9.00698242 1.09282227 9.00698242 1.08789062 10.37304688 C1.07951172 11.30181641 1.07113281 12.23058594 1.0625 13.1875 C1.05798828 14.12787109 1.05347656 15.06824219 1.04882812 16.03710938 C1.03704626 18.35813712 1.02059558 20.67903644 1 23 C0.34 23 -0.32 23 -1 23 C-2.70188447 19.59623106 -2.18458114 15.81324101 -2.1875 12.0625 C-2.19974609 11.23814453 -2.21199219 10.41378906 -2.22460938 9.56445312 C-2.22654297 8.77103516 -2.22847656 7.97761719 -2.23046875 7.16015625 C-2.23457764 6.43449463 -2.23868652 5.70883301 -2.24291992 4.96118164 C-2 3 -2 3 0 0 Z " fill="#989898" transform="translate(1022,504)"/>
<path d="M0 0 C0.94875 0.04125 1.8975 0.0825 2.875 0.125 C1.875 2.125 1.875 2.125 -1.5 3.5625 C-5.49535443 5.10504698 -5.49535443 5.10504698 -8.125 8.125 C-8.3753577 11.75035976 -8.3753577 11.75035976 -8.125 15.125 C-9.115 14.465 -10.105 13.805 -11.125 13.125 C-10.74972519 7.74606101 -9.13017004 5.64173467 -5.125 2.125 C-3.125 0.125 -3.125 0.125 0 0 Z " fill="#737373" transform="translate(945.125,508.875)"/>
<path d="M0 0 C-1 2 -1 2 -4.0625 3.125 C-5.5165625 3.558125 -5.5165625 3.558125 -7 4 C-7 4.99 -7 5.98 -7 7 C-5.35 7.33 -3.7 7.66 -2 8 C-3.75 9.125 -3.75 9.125 -6 10 C-8.25 9.125 -8.25 9.125 -10 8 C-9.64505955 5.37344067 -9.27538036 3.42031739 -7.8125 1.1875 C-5.20638339 -0.51995571 -3.0400645 -0.20267097 0 0 Z " fill="#7A7A7A" transform="translate(993,517)"/>
<path d="M0 0 C1.32 0.33 2.64 0.66 4 1 C3.01 1 2.02 1 1 1 C1.66 3.64 2.32 6.28 3 9 C2.34 9 1.68 9 1 9 C1 9.99 1 10.98 1 12 C-0.32 11.34 -1.64 10.68 -3 10 C-2.01 10 -1.02 10 0 10 C-0.7763932 6.9254644 -0.7763932 6.9254644 -3 5 C-2.34 5 -1.68 5 -1 5 C-0.67 3.35 -0.34 1.7 0 0 Z " fill="#7C7C7C" transform="translate(1081,499)"/>
<path d="M0 0 C0.66 0.66 1.32 1.32 2 2 C1.01 3.485 1.01 3.485 0 5 C0.23212966 10.04001408 0.23212966 10.04001408 3 14 C2.01 14 1.02 14 0 14 C-2.36887222 11.1235123 -3.03757741 9.62629008 -2.8125 5.875 C-2 3 -2 3 0 0 Z " fill="#747474" transform="translate(1060,514)"/>
<path d="M0 0 C0.33 0 0.66 0 1 0 C0.67 2.97 0.34 5.94 0 9 C0.66 9 1.32 9 2 9 C1.34 10.65 0.68 12.3 0 14 C-0.66 14 -1.32 14 -2 14 C-2.21192221 8.80790596 -1.5912689 4.873261 0 0 Z " fill="#555555" transform="translate(1010,510)"/>
<path d="M0 0 C0.33 0 0.66 0 1 0 C0.67 3.96 0.34 7.92 0 12 C-0.66 11.34 -1.32 10.68 -2 10 C-2.99 10.495 -2.99 10.495 -4 11 C-3.39301257 6.87248551 -1.96189209 3.6678852 0 0 Z " fill="#DBDBDB" transform="translate(1010,502)"/>
<path d="M0 0 C0.33 0 0.66 0 1 0 C0.85904936 1.6254308 0.71207913 3.25034051 0.5625 4.875 C0.48128906 5.77992188 0.40007813 6.68484375 0.31640625 7.6171875 C0 10 0 10 -1 12 C-1.66 12 -2.32 12 -3 12 C-3.33 12.99 -3.66 13.98 -4 15 C-5 13 -5 13 -4.00390625 9.9609375 C-3.52824219 8.77757812 -3.05257812 7.59421875 -2.5625 6.375 C-2.08941406 5.18648438 -1.61632812 3.99796875 -1.12890625 2.7734375 C-0.75636719 1.85820312 -0.38382813 0.94296875 0 0 Z " fill="#484848" transform="translate(906,505)"/>
<path d="M0 0 C0.66 0 1.32 0 2 0 C1.71872579 1.48117801 1.42466268 2.95993249 1.125 4.4375 C0.96257812 5.26121094 0.80015625 6.08492188 0.6328125 6.93359375 C0.31957031 7.95646484 0.31957031 7.95646484 0 9 C-0.99 9.495 -0.99 9.495 -2 10 C-3.04127245 6.6868604 -3.18574123 5.39801692 -1.6875 2.1875 C-1.130625 1.465625 -0.57375 0.74375 0 0 Z " fill="#575757" transform="translate(1026,494)"/>
<path d="M0 0 C1.98 0.66 3.96 1.32 6 2 C2.49461443 3.96301592 -1.13351728 4.95902388 -5 6 C-3.625 4.5 -3.625 4.5 -2 3 C-1.34 3 -0.68 3 0 3 C0 2.01 0 1.02 0 0 Z " fill="#575757" transform="translate(938,503)"/>
<path d="M0 0 C4.29 0 8.58 0 13 0 C13 0.33 13 0.66 13 1 C10.36 1 7.72 1 5 1 C5 1.66 5 2.32 5 3 C3.35 3 1.7 3 0 3 C0 2.01 0 1.02 0 0 Z " fill="#474747" transform="translate(872,434)"/>
<path d="M0 0 C0.66 0.33 1.32 0.66 2 1 C-0.97 3.97 -3.94 6.94 -7 10 C-7 7 -7 7 -4.625 4.4375 C-3.75875 3.633125 -2.8925 2.82875 -2 2 C-1.34 1.34 -0.68 0.68 0 0 Z " fill="#D5D5D5" transform="translate(1028,439)"/>
<path d="M0 0 C0.268125 0.598125 0.53625 1.19625 0.8125 1.8125 C2.05317513 4.09795418 2.92085706 5.44064279 5 7 C8.10839021 7.7269226 8.10839021 7.7269226 11 8 C11 8.33 11 8.66 11 9 C4.7 9.48461538 4.7 9.48461538 1.5625 7.3125 C-0.25953249 4.61589191 -0.35430394 3.18873549 0 0 Z " fill="#565656" transform="translate(922,520)"/>
<path d="M0 0 C0.33 0 0.66 0 1 0 C1 1.98 1 3.96 1 6 C0.01 6.33 -0.98 6.66 -2 7 C-2.33 7.66 -2.66 8.32 -3 9 C-2.5020163 5.26512223 -2.12508244 3.18762365 0 0 Z " fill="#4E4E4E" transform="translate(1012,494)"/>
<path d="M0 0 C0.66 0 1.32 0 2 0 C1.34 2.97 0.68 5.94 0 9 C-2 5 -2 5 -1.125 2.25 C-0.75375 1.5075 -0.3825 0.765 0 0 Z " fill="#8B8B8B" transform="translate(966,498)"/>
<path d="M0 0 C-3 2 -3 2 -6 2 C-6 2.66 -6 3.32 -6 4 C-6.99 4 -7.98 4 -9 4 C-9.33 3.01 -9.66 2.02 -10 1 C-6.59437148 0.22157062 -3.49234244 -0.09978121 0 0 Z " fill="#585858" transform="translate(1091,495)"/>
<path d="M0 0 C-3.26545761 1.88391785 -6.28111761 2.49287967 -10 3 C-7.7846105 -1.43077901 -4.3377361 -1.20492669 0 0 Z " fill="#4E4E4E" transform="translate(1050,505)"/>
</svg>
